# xmcd
#
# Track frame offsets:
#	150
#	18650
#	32659
#	52190
#	65584
#	82963
#	96963
#	111012
#
# Disc length: 1788 seconds
#
# Revision: 0
# Processed by: cddbd v1.5PL3 Copyright (c) Steve Scherf et al.
# Submitted via: dBpowerAMP V4.0
#
DISCID=6606fa08
DTITLE=GARY SEFTON - THE MAGNIFICENT BIRD
DYEAR=1900
DGENRE=Country
TTITLE0=A MAGNIFICENT BIRD
TTITLE1=THE GRAND TRADITION
TTITLE2=TEN GAUGE MAGNUM SHOTGUN
TTITLE3=WAITING AND WONDERING
TTITLE4=ALL HENNED UP AND HAPPY
TTITLE5=COLD HEARTED HEN
TTITLE6=TURKEY TALKING BLUES
TTITLE7=PICASSO THE RIO
EXTD=
EXTT0=
EXTT1=
EXTT2=
EXTT3=
EXTT4=
EXTT5=
EXTT6=
EXTT7=
PLAYORDER=
